%TF.GenerationSoftware,KiCad,Pcbnew,8.0.7*%
%TF.CreationDate,2026-08-02T23:33:18-07:00*%
%TF.ProjectId,miniSSTC,6d696e69-5353-4544-932e-6b696361645f,rev?*%
%TF.SameCoordinates,Original*%
%TF.FileFunction,Copper,L2,Bot*%
%TF.FilePolarity,Positive*%
%FSLAX46Y46*%
G04 Gerber Fmt 4.6, Leading zero omitted, Abs format (unit mm)*
G04 Created by KiCad (PCBNEW 8.0.7) date 2026-08-02 23:33:18*
%MOMM*%
%LPD*%
G01*
G04 APERTURE LIST*
%TA.AperFunction,ComponentPad*%
%ADD10C,2.000000*%
%TD*%
%TA.AperFunction,ComponentPad*%
%ADD11C,3.300000*%
%TD*%
%TA.AperFunction,ComponentPad*%
%ADD12C,1.600000*%
%TD*%
%TA.AperFunction,ComponentPad*%
%ADD13O,1.600000X1.600000*%
%TD*%
%TA.AperFunction,ComponentPad*%
%ADD14R,2.600000X2.600000*%
%TD*%
%TA.AperFunction,ComponentPad*%
%ADD15O,2.600000X2.600000*%
%TD*%
%TA.AperFunction,ComponentPad*%
%ADD16R,3.200000X3.200000*%
%TD*%
%TA.AperFunction,ComponentPad*%
%ADD17O,3.200000X3.200000*%
%TD*%
%TA.AperFunction,ComponentPad*%
%ADD18R,4.500000X2.500000*%
%TD*%
%TA.AperFunction,ComponentPad*%
%ADD19O,4.500000X2.500000*%
%TD*%
%TA.AperFunction,Conductor*%
%ADD20C,2.000000*%
%TD*%
G04 APERTURE END LIST*
D10*
%TO.P,C1,1*%
%TO.N,Net-(D2-A1)*%
X68652400Y-53086000D03*
%TO.P,C1,2*%
%TO.N,Net-(J2-Pin_2)*%
X58652400Y-53086000D03*
%TD*%
D11*
%TO.P,J2,1,Pin_1*%
%TO.N,Net-(D1-K)*%
X57150000Y-31089600D03*
X57150000Y-20929600D03*
%TO.P,J2,2,Pin_2*%
%TO.N,Net-(J2-Pin_2)*%
X46990000Y-31089600D03*
X46990000Y-20929600D03*
%TD*%
D12*
%TO.P,R1,1*%
%TO.N,Net-(J2-Pin_2)*%
X51612800Y-39420800D03*
D13*
%TO.P,R1,2*%
%TO.N,Net-(R1-Pad2)*%
X51612800Y-49580800D03*
%TD*%
D12*
%TO.P,C2,1*%
%TO.N,Net-(D2-A2)*%
X54965600Y-61214000D03*
%TO.P,C2,2*%
%TO.N,Net-(J3-Pin_1)*%
X54965600Y-66214000D03*
%TD*%
D14*
%TO.P,D2,1,A1*%
%TO.N,Net-(D2-A1)*%
X76962000Y-65125600D03*
D15*
%TO.P,D2,2,A2*%
%TO.N,Net-(D2-A2)*%
X61722000Y-65125600D03*
%TD*%
D14*
%TO.P,D3,1,A1*%
%TO.N,Net-(D2-A1)*%
X82448400Y-45364400D03*
D15*
%TO.P,D3,2,A2*%
%TO.N,Net-(D3-A2)*%
X82448400Y-60604400D03*
%TD*%
D11*
%TO.P,J4,2,Pin_2*%
%TO.N,Net-(D3-A2)*%
X81076800Y-85242400D03*
X81076800Y-75082400D03*
%TO.P,J4,1,Pin_1*%
%TO.N,Net-(J2-Pin_2)*%
X70916800Y-85242400D03*
X70916800Y-75082400D03*
%TD*%
%TO.P,J3,1,Pin_1*%
%TO.N,Net-(J3-Pin_1)*%
X46888400Y-75133200D03*
X46888400Y-85293200D03*
%TO.P,J3,2,Pin_2*%
X57048400Y-75133200D03*
X57048400Y-85293200D03*
%TD*%
%TO.P,J1,1,Pin_1*%
%TO.N,Net-(D2-A1)*%
X81076800Y-31140400D03*
X81076800Y-20980400D03*
%TO.P,J1,2,Pin_2*%
%TO.N,Net-(D1-A)*%
X70916800Y-31140400D03*
X70916800Y-20980400D03*
%TD*%
D16*
%TO.P,D1,1,K*%
%TO.N,Net-(D1-K)*%
X56489600Y-41249600D03*
D17*
%TO.P,D1,2,A*%
%TO.N,Net-(D1-A)*%
X71729600Y-41249600D03*
%TD*%
D12*
%TO.P,R2,1*%
%TO.N,Net-(R1-Pad2)*%
X76606400Y-49631600D03*
D13*
%TO.P,R2,2*%
%TO.N,Net-(D2-A1)*%
X76606400Y-39471600D03*
%TD*%
D18*
%TO.P,Q1,1,G*%
%TO.N,Net-(D2-A2)*%
X45415200Y-61801600D03*
D19*
%TO.P,Q1,2,D*%
%TO.N,Net-(D3-A2)*%
X45415200Y-56351600D03*
%TO.P,Q1,3,S*%
%TO.N,Net-(D2-A1)*%
X45415200Y-50901600D03*
%TD*%
D20*
%TO.N,Net-(D3-A2)*%
X45415200Y-56351600D02*
X46549600Y-57486000D01*
X79330000Y-57486000D02*
X82448400Y-60604400D01*
X46549600Y-57486000D02*
X79330000Y-57486000D01*
%TO.N,Net-(D2-A1)*%
X45415200Y-50901600D02*
X49799600Y-55286000D01*
X49799600Y-55286000D02*
X66452400Y-55286000D01*
X66452400Y-55286000D02*
X68652400Y-53086000D01*
%TO.N,Net-(R1-Pad2)*%
X51612800Y-49580800D02*
X76555600Y-49580800D01*
X76555600Y-49580800D02*
X76606400Y-49631600D01*
%TD*%
M02*
