M48
; DRILL file {KiCad 8.0.7} date 2026-08-02T23:33:20-0700
; FORMAT={-:-/ absolute / inch / decimal}
; #@! TF.CreationDate,2026-08-02T23:33:20-07:00
; #@! TF.GenerationSoftware,Kicad,Pcbnew,8.0.7
; #@! TF.FileFunction,Plated,1,2,PTH
FMAT,2
INCH
; #@! TA.AperFunction,Plated,PTH,ComponentDrill
T1C0.0315
; #@! TA.AperFunction,Plated,PTH,ComponentDrill
T2C0.0394
; #@! TA.AperFunction,Plated,PTH,ComponentDrill
T3C0.0512
; #@! TA.AperFunction,Plated,PTH,ComponentDrill
T4C0.0591
; #@! TA.AperFunction,Plated,PTH,ComponentDrill
T5C0.0630
; #@! TA.AperFunction,Plated,PTH,ComponentDrill
T6C0.0866
%
G90
G05
T1
X2.032Y-1.552
X2.032Y-1.952
X2.164Y-2.41
X2.164Y-2.6069
X3.016Y-1.554
X3.016Y-1.954
T2
X2.3091Y-2.09
X2.7029Y-2.09
T3
X2.43Y-2.564
X3.03Y-2.564
X3.246Y-1.786
X3.246Y-2.386
T4
X1.788Y-2.004
X1.788Y-2.2186
X1.788Y-2.4331
T5
X2.224Y-1.624
X2.824Y-1.624
T6
X1.846Y-2.958
X1.846Y-3.358
X1.85Y-0.824
X1.85Y-1.224
X2.246Y-2.958
X2.246Y-3.358
X2.25Y-0.824
X2.25Y-1.224
X2.792Y-0.826
X2.792Y-1.226
X2.792Y-2.956
X2.792Y-3.356
X3.192Y-0.826
X3.192Y-1.226
X3.192Y-2.956
X3.192Y-3.356
M30
