%TF.GenerationSoftware,KiCad,Pcbnew,8.0.7*%
%TF.CreationDate,2026-08-02T23:33:18-07:00*%
%TF.ProjectId,miniSSTC,6d696e69-5353-4544-932e-6b696361645f,rev?*%
%TF.SameCoordinates,Original*%
%TF.FileFunction,Legend,Top*%
%TF.FilePolarity,Positive*%
%FSLAX46Y46*%
G04 Gerber Fmt 4.6, Leading zero omitted, Abs format (unit mm)*
G04 Created by KiCad (PCBNEW 8.0.7) date 2026-08-02 23:33:18*
%MOMM*%
%LPD*%
G01*
G04 APERTURE LIST*
%ADD10C,0.150000*%
%ADD11C,0.120000*%
%ADD12C,0.250000*%
%ADD13C,0.060000*%
%ADD14C,0.000000*%
G04 APERTURE END LIST*
D10*
X63485733Y-56695580D02*
X63438114Y-56743200D01*
X63438114Y-56743200D02*
X63295257Y-56790819D01*
X63295257Y-56790819D02*
X63200019Y-56790819D01*
X63200019Y-56790819D02*
X63057162Y-56743200D01*
X63057162Y-56743200D02*
X62961924Y-56647961D01*
X62961924Y-56647961D02*
X62914305Y-56552723D01*
X62914305Y-56552723D02*
X62866686Y-56362247D01*
X62866686Y-56362247D02*
X62866686Y-56219390D01*
X62866686Y-56219390D02*
X62914305Y-56028914D01*
X62914305Y-56028914D02*
X62961924Y-55933676D01*
X62961924Y-55933676D02*
X63057162Y-55838438D01*
X63057162Y-55838438D02*
X63200019Y-55790819D01*
X63200019Y-55790819D02*
X63295257Y-55790819D01*
X63295257Y-55790819D02*
X63438114Y-55838438D01*
X63438114Y-55838438D02*
X63485733Y-55886057D01*
X64438114Y-56790819D02*
X63866686Y-56790819D01*
X64152400Y-56790819D02*
X64152400Y-55790819D01*
X64152400Y-55790819D02*
X64057162Y-55933676D01*
X64057162Y-55933676D02*
X63961924Y-56028914D01*
X63961924Y-56028914D02*
X63866686Y-56076533D01*
X51736666Y-34544420D02*
X51736666Y-35258705D01*
X51736666Y-35258705D02*
X51689047Y-35401562D01*
X51689047Y-35401562D02*
X51593809Y-35496801D01*
X51593809Y-35496801D02*
X51450952Y-35544420D01*
X51450952Y-35544420D02*
X51355714Y-35544420D01*
X52165238Y-34639658D02*
X52212857Y-34592039D01*
X52212857Y-34592039D02*
X52308095Y-34544420D01*
X52308095Y-34544420D02*
X52546190Y-34544420D01*
X52546190Y-34544420D02*
X52641428Y-34592039D01*
X52641428Y-34592039D02*
X52689047Y-34639658D01*
X52689047Y-34639658D02*
X52736666Y-34734896D01*
X52736666Y-34734896D02*
X52736666Y-34830134D01*
X52736666Y-34830134D02*
X52689047Y-34972991D01*
X52689047Y-34972991D02*
X52117619Y-35544420D01*
X52117619Y-35544420D02*
X52736666Y-35544420D01*
X54437620Y-44667466D02*
X53961429Y-45000799D01*
X54437620Y-45238894D02*
X53437620Y-45238894D01*
X53437620Y-45238894D02*
X53437620Y-44857942D01*
X53437620Y-44857942D02*
X53485239Y-44762704D01*
X53485239Y-44762704D02*
X53532858Y-44715085D01*
X53532858Y-44715085D02*
X53628096Y-44667466D01*
X53628096Y-44667466D02*
X53770953Y-44667466D01*
X53770953Y-44667466D02*
X53866191Y-44715085D01*
X53866191Y-44715085D02*
X53913810Y-44762704D01*
X53913810Y-44762704D02*
X53961429Y-44857942D01*
X53961429Y-44857942D02*
X53961429Y-45238894D01*
X54437620Y-43715085D02*
X54437620Y-44286513D01*
X54437620Y-44000799D02*
X53437620Y-44000799D01*
X53437620Y-44000799D02*
X53580477Y-44096037D01*
X53580477Y-44096037D02*
X53675715Y-44191275D01*
X53675715Y-44191275D02*
X53723334Y-44286513D01*
X58825180Y-63880666D02*
X58872800Y-63928285D01*
X58872800Y-63928285D02*
X58920419Y-64071142D01*
X58920419Y-64071142D02*
X58920419Y-64166380D01*
X58920419Y-64166380D02*
X58872800Y-64309237D01*
X58872800Y-64309237D02*
X58777561Y-64404475D01*
X58777561Y-64404475D02*
X58682323Y-64452094D01*
X58682323Y-64452094D02*
X58491847Y-64499713D01*
X58491847Y-64499713D02*
X58348990Y-64499713D01*
X58348990Y-64499713D02*
X58158514Y-64452094D01*
X58158514Y-64452094D02*
X58063276Y-64404475D01*
X58063276Y-64404475D02*
X57968038Y-64309237D01*
X57968038Y-64309237D02*
X57920419Y-64166380D01*
X57920419Y-64166380D02*
X57920419Y-64071142D01*
X57920419Y-64071142D02*
X57968038Y-63928285D01*
X57968038Y-63928285D02*
X58015657Y-63880666D01*
X58015657Y-63499713D02*
X57968038Y-63452094D01*
X57968038Y-63452094D02*
X57920419Y-63356856D01*
X57920419Y-63356856D02*
X57920419Y-63118761D01*
X57920419Y-63118761D02*
X57968038Y-63023523D01*
X57968038Y-63023523D02*
X58015657Y-62975904D01*
X58015657Y-62975904D02*
X58110895Y-62928285D01*
X58110895Y-62928285D02*
X58206133Y-62928285D01*
X58206133Y-62928285D02*
X58348990Y-62975904D01*
X58348990Y-62975904D02*
X58920419Y-63547332D01*
X58920419Y-63547332D02*
X58920419Y-62928285D01*
X68603905Y-69350419D02*
X68603905Y-68350419D01*
X68603905Y-68350419D02*
X68842000Y-68350419D01*
X68842000Y-68350419D02*
X68984857Y-68398038D01*
X68984857Y-68398038D02*
X69080095Y-68493276D01*
X69080095Y-68493276D02*
X69127714Y-68588514D01*
X69127714Y-68588514D02*
X69175333Y-68778990D01*
X69175333Y-68778990D02*
X69175333Y-68921847D01*
X69175333Y-68921847D02*
X69127714Y-69112323D01*
X69127714Y-69112323D02*
X69080095Y-69207561D01*
X69080095Y-69207561D02*
X68984857Y-69302800D01*
X68984857Y-69302800D02*
X68842000Y-69350419D01*
X68842000Y-69350419D02*
X68603905Y-69350419D01*
X69556286Y-68445657D02*
X69603905Y-68398038D01*
X69603905Y-68398038D02*
X69699143Y-68350419D01*
X69699143Y-68350419D02*
X69937238Y-68350419D01*
X69937238Y-68350419D02*
X70032476Y-68398038D01*
X70032476Y-68398038D02*
X70080095Y-68445657D01*
X70080095Y-68445657D02*
X70127714Y-68540895D01*
X70127714Y-68540895D02*
X70127714Y-68636133D01*
X70127714Y-68636133D02*
X70080095Y-68778990D01*
X70080095Y-68778990D02*
X69508667Y-69350419D01*
X69508667Y-69350419D02*
X70127714Y-69350419D01*
X76700095Y-67880420D02*
X76700095Y-66880420D01*
X77271523Y-67880420D02*
X76842952Y-67308991D01*
X77271523Y-66880420D02*
X76700095Y-67451848D01*
X86673219Y-53722494D02*
X85673219Y-53722494D01*
X85673219Y-53722494D02*
X85673219Y-53484399D01*
X85673219Y-53484399D02*
X85720838Y-53341542D01*
X85720838Y-53341542D02*
X85816076Y-53246304D01*
X85816076Y-53246304D02*
X85911314Y-53198685D01*
X85911314Y-53198685D02*
X86101790Y-53151066D01*
X86101790Y-53151066D02*
X86244647Y-53151066D01*
X86244647Y-53151066D02*
X86435123Y-53198685D01*
X86435123Y-53198685D02*
X86530361Y-53246304D01*
X86530361Y-53246304D02*
X86625600Y-53341542D01*
X86625600Y-53341542D02*
X86673219Y-53484399D01*
X86673219Y-53484399D02*
X86673219Y-53722494D01*
X85673219Y-52817732D02*
X85673219Y-52198685D01*
X85673219Y-52198685D02*
X86054171Y-52532018D01*
X86054171Y-52532018D02*
X86054171Y-52389161D01*
X86054171Y-52389161D02*
X86101790Y-52293923D01*
X86101790Y-52293923D02*
X86149409Y-52246304D01*
X86149409Y-52246304D02*
X86244647Y-52198685D01*
X86244647Y-52198685D02*
X86482742Y-52198685D01*
X86482742Y-52198685D02*
X86577980Y-52246304D01*
X86577980Y-52246304D02*
X86625600Y-52293923D01*
X86625600Y-52293923D02*
X86673219Y-52389161D01*
X86673219Y-52389161D02*
X86673219Y-52674875D01*
X86673219Y-52674875D02*
X86625600Y-52770113D01*
X86625600Y-52770113D02*
X86577980Y-52817732D01*
X85203220Y-45626304D02*
X84203220Y-45626304D01*
X85203220Y-45054876D02*
X84631791Y-45483447D01*
X84203220Y-45054876D02*
X84774648Y-45626304D01*
X75663466Y-70537218D02*
X75663466Y-71251503D01*
X75663466Y-71251503D02*
X75615847Y-71394360D01*
X75615847Y-71394360D02*
X75520609Y-71489599D01*
X75520609Y-71489599D02*
X75377752Y-71537218D01*
X75377752Y-71537218D02*
X75282514Y-71537218D01*
X76568228Y-70870551D02*
X76568228Y-71537218D01*
X76330133Y-70489599D02*
X76092038Y-71203884D01*
X76092038Y-71203884D02*
X76711085Y-71203884D01*
X51635066Y-70588018D02*
X51635066Y-71302303D01*
X51635066Y-71302303D02*
X51587447Y-71445160D01*
X51587447Y-71445160D02*
X51492209Y-71540399D01*
X51492209Y-71540399D02*
X51349352Y-71588018D01*
X51349352Y-71588018D02*
X51254114Y-71588018D01*
X52016019Y-70588018D02*
X52635066Y-70588018D01*
X52635066Y-70588018D02*
X52301733Y-70968970D01*
X52301733Y-70968970D02*
X52444590Y-70968970D01*
X52444590Y-70968970D02*
X52539828Y-71016589D01*
X52539828Y-71016589D02*
X52587447Y-71064208D01*
X52587447Y-71064208D02*
X52635066Y-71159446D01*
X52635066Y-71159446D02*
X52635066Y-71397541D01*
X52635066Y-71397541D02*
X52587447Y-71492779D01*
X52587447Y-71492779D02*
X52539828Y-71540399D01*
X52539828Y-71540399D02*
X52444590Y-71588018D01*
X52444590Y-71588018D02*
X52158876Y-71588018D01*
X52158876Y-71588018D02*
X52063638Y-71540399D01*
X52063638Y-71540399D02*
X52016019Y-71492779D01*
X75663466Y-34595220D02*
X75663466Y-35309505D01*
X75663466Y-35309505D02*
X75615847Y-35452362D01*
X75615847Y-35452362D02*
X75520609Y-35547601D01*
X75520609Y-35547601D02*
X75377752Y-35595220D01*
X75377752Y-35595220D02*
X75282514Y-35595220D01*
X76663466Y-35595220D02*
X76092038Y-35595220D01*
X76377752Y-35595220D02*
X76377752Y-34595220D01*
X76377752Y-34595220D02*
X76282514Y-34738077D01*
X76282514Y-34738077D02*
X76187276Y-34833315D01*
X76187276Y-34833315D02*
X76092038Y-34880934D01*
X63371505Y-37984419D02*
X63371505Y-36984419D01*
X63371505Y-36984419D02*
X63609600Y-36984419D01*
X63609600Y-36984419D02*
X63752457Y-37032038D01*
X63752457Y-37032038D02*
X63847695Y-37127276D01*
X63847695Y-37127276D02*
X63895314Y-37222514D01*
X63895314Y-37222514D02*
X63942933Y-37412990D01*
X63942933Y-37412990D02*
X63942933Y-37555847D01*
X63942933Y-37555847D02*
X63895314Y-37746323D01*
X63895314Y-37746323D02*
X63847695Y-37841561D01*
X63847695Y-37841561D02*
X63752457Y-37936800D01*
X63752457Y-37936800D02*
X63609600Y-37984419D01*
X63609600Y-37984419D02*
X63371505Y-37984419D01*
X64895314Y-37984419D02*
X64323886Y-37984419D01*
X64609600Y-37984419D02*
X64609600Y-36984419D01*
X64609600Y-36984419D02*
X64514362Y-37127276D01*
X64514362Y-37127276D02*
X64419124Y-37222514D01*
X64419124Y-37222514D02*
X64323886Y-37270133D01*
X56227695Y-39104418D02*
X56227695Y-38104418D01*
X56799123Y-39104418D02*
X56370552Y-38532989D01*
X56799123Y-38104418D02*
X56227695Y-38675846D01*
X74691218Y-44718266D02*
X74215027Y-45051599D01*
X74691218Y-45289694D02*
X73691218Y-45289694D01*
X73691218Y-45289694D02*
X73691218Y-44908742D01*
X73691218Y-44908742D02*
X73738837Y-44813504D01*
X73738837Y-44813504D02*
X73786456Y-44765885D01*
X73786456Y-44765885D02*
X73881694Y-44718266D01*
X73881694Y-44718266D02*
X74024551Y-44718266D01*
X74024551Y-44718266D02*
X74119789Y-44765885D01*
X74119789Y-44765885D02*
X74167408Y-44813504D01*
X74167408Y-44813504D02*
X74215027Y-44908742D01*
X74215027Y-44908742D02*
X74215027Y-45289694D01*
X73786456Y-44337313D02*
X73738837Y-44289694D01*
X73738837Y-44289694D02*
X73691218Y-44194456D01*
X73691218Y-44194456D02*
X73691218Y-43956361D01*
X73691218Y-43956361D02*
X73738837Y-43861123D01*
X73738837Y-43861123D02*
X73786456Y-43813504D01*
X73786456Y-43813504D02*
X73881694Y-43765885D01*
X73881694Y-43765885D02*
X73976932Y-43765885D01*
X73976932Y-43765885D02*
X74119789Y-43813504D01*
X74119789Y-43813504D02*
X74691218Y-44384932D01*
X74691218Y-44384932D02*
X74691218Y-43765885D01*
X42515258Y-56446838D02*
X42467639Y-56542076D01*
X42467639Y-56542076D02*
X42372401Y-56637314D01*
X42372401Y-56637314D02*
X42229543Y-56780171D01*
X42229543Y-56780171D02*
X42181924Y-56875409D01*
X42181924Y-56875409D02*
X42181924Y-56970647D01*
X42420020Y-56923028D02*
X42372401Y-57018266D01*
X42372401Y-57018266D02*
X42277162Y-57113504D01*
X42277162Y-57113504D02*
X42086686Y-57161123D01*
X42086686Y-57161123D02*
X41753353Y-57161123D01*
X41753353Y-57161123D02*
X41562877Y-57113504D01*
X41562877Y-57113504D02*
X41467639Y-57018266D01*
X41467639Y-57018266D02*
X41420020Y-56923028D01*
X41420020Y-56923028D02*
X41420020Y-56732552D01*
X41420020Y-56732552D02*
X41467639Y-56637314D01*
X41467639Y-56637314D02*
X41562877Y-56542076D01*
X41562877Y-56542076D02*
X41753353Y-56494457D01*
X41753353Y-56494457D02*
X42086686Y-56494457D01*
X42086686Y-56494457D02*
X42277162Y-56542076D01*
X42277162Y-56542076D02*
X42372401Y-56637314D01*
X42372401Y-56637314D02*
X42420020Y-56732552D01*
X42420020Y-56732552D02*
X42420020Y-56923028D01*
X42420020Y-55542076D02*
X42420020Y-56113504D01*
X42420020Y-55827790D02*
X41420020Y-55827790D01*
X41420020Y-55827790D02*
X41562877Y-55923028D01*
X41562877Y-55923028D02*
X41658115Y-56018266D01*
X41658115Y-56018266D02*
X41705734Y-56113504D01*
D11*
%TO.C,C1*%
X70272400Y-55206000D02*
X70272400Y-50966000D01*
X70272400Y-55206000D02*
X57032400Y-55206000D01*
X70272400Y-50966000D02*
X57032400Y-50966000D01*
X57032400Y-55206000D02*
X57032400Y-50966000D01*
D12*
%TO.C,J2*%
X62230000Y-33289599D02*
X62230000Y-14639600D01*
X62230000Y-33289599D02*
X41910000Y-33289599D01*
X62230000Y-31919600D02*
X58840000Y-31919600D01*
X62229999Y-20909600D02*
X59030000Y-20909600D01*
X62229999Y-18869600D02*
X41910001Y-18869600D01*
X62230000Y-14639600D02*
X41910000Y-14639600D01*
X58590000Y-17589600D02*
X58170000Y-18009600D01*
X58590000Y-14639600D02*
X58590000Y-17589600D01*
X58170000Y-18009600D02*
X56260000Y-18009600D01*
X56260000Y-18009600D02*
X55760000Y-17499600D01*
X55760000Y-17499600D02*
X55760000Y-14639600D01*
X55460000Y-31919600D02*
X48680000Y-31919600D01*
X55270000Y-20909600D02*
X48870000Y-20909600D01*
X48430000Y-17589600D02*
X48010000Y-18009600D01*
X48430000Y-14639600D02*
X48430000Y-17589600D01*
X48010000Y-18009600D02*
X46100000Y-18009600D01*
X46100000Y-18009600D02*
X45600000Y-17499600D01*
X45600000Y-17499600D02*
X45600000Y-14639600D01*
X45300000Y-31919600D02*
X41910000Y-31919600D01*
X45110000Y-20909600D02*
X41910001Y-20909600D01*
X41910000Y-33289599D02*
X41910000Y-14639600D01*
D13*
X62260000Y-33289599D02*
G75*
G02*
X62200000Y-33289599I-30000J0D01*
G01*
X62200000Y-33289599D02*
G75*
G02*
X62260000Y-33289599I30000J0D01*
G01*
D14*
G36*
X57149999Y-17627600D02*
G01*
X56388000Y-16484600D01*
X57912000Y-16484600D01*
X57149999Y-17627600D01*
G37*
G36*
X46990001Y-17627600D02*
G01*
X46228000Y-16484600D01*
X47752000Y-16484600D01*
X46990001Y-17627600D01*
G37*
G36*
X57277000Y-16484600D02*
G01*
X57023000Y-16484600D01*
X57023000Y-15087600D01*
X57277000Y-15087600D01*
X57277000Y-16484600D01*
G37*
G36*
X47117000Y-16484600D02*
G01*
X46863000Y-16484600D01*
X46863000Y-15087600D01*
X47117000Y-15087600D01*
X47117000Y-16484600D01*
G37*
D11*
%TO.C,R1*%
X51612800Y-40460800D02*
X51612800Y-41230800D01*
X52982800Y-41230800D02*
X50242800Y-41230800D01*
X50242800Y-41230800D02*
X50242800Y-47770800D01*
X52982800Y-47770800D02*
X52982800Y-41230800D01*
X50242800Y-47770800D02*
X52982800Y-47770800D01*
X51612800Y-48540800D02*
X51612800Y-47770801D01*
%TO.C,C2*%
X57335600Y-59994000D02*
X52595600Y-59994000D01*
X57335600Y-59994000D02*
X57335600Y-67434000D01*
X52595600Y-59994000D02*
X52595600Y-67434000D01*
X57335600Y-67434000D02*
X52595600Y-67434000D01*
%TO.C,D2*%
X75422001Y-65125600D02*
X73962000Y-65125600D01*
X73962000Y-67895600D02*
X73962000Y-62355600D01*
X73962000Y-62355600D02*
X64722000Y-62355600D01*
X72612000Y-67895600D02*
X72612000Y-62355600D01*
X72492000Y-67895600D02*
X72492000Y-62355600D01*
X72372000Y-67895600D02*
X72372000Y-62355600D01*
X64722000Y-67895600D02*
X73962000Y-67895600D01*
X64722000Y-62355600D02*
X64722000Y-67895600D01*
X63262000Y-65125600D02*
X64722000Y-65125600D01*
%TO.C,D3*%
X82448400Y-46904399D02*
X82448400Y-48364400D01*
X85218400Y-48364400D02*
X79678400Y-48364400D01*
X79678400Y-48364400D02*
X79678400Y-57604400D01*
X85218400Y-49714400D02*
X79678400Y-49714400D01*
X85218400Y-49834400D02*
X79678400Y-49834400D01*
X85218400Y-49954400D02*
X79678400Y-49954400D01*
X85218400Y-57604400D02*
X85218400Y-48364400D01*
X79678400Y-57604400D02*
X85218400Y-57604400D01*
X82448400Y-59064400D02*
X82448400Y-57604400D01*
D14*
%TO.C,J4*%
G36*
X81203800Y-91084400D02*
G01*
X80949800Y-91084400D01*
X80949800Y-89687400D01*
X81203800Y-89687400D01*
X81203800Y-91084400D01*
G37*
G36*
X71043800Y-91084400D02*
G01*
X70789800Y-91084400D01*
X70789800Y-89687400D01*
X71043800Y-89687400D01*
X71043800Y-91084400D01*
G37*
G36*
X81838800Y-89687400D02*
G01*
X80314800Y-89687400D01*
X81076799Y-88544400D01*
X81838800Y-89687400D01*
G37*
G36*
X71678800Y-89687400D02*
G01*
X70154800Y-89687400D01*
X70916801Y-88544400D01*
X71678800Y-89687400D01*
G37*
D13*
X65866800Y-72882401D02*
G75*
G02*
X65806800Y-72882401I-30000J0D01*
G01*
X65806800Y-72882401D02*
G75*
G02*
X65866800Y-72882401I30000J0D01*
G01*
D12*
X86156800Y-72882401D02*
X86156800Y-91532400D01*
X82956800Y-85262400D02*
X86156799Y-85262400D01*
X82766800Y-74252400D02*
X86156800Y-74252400D01*
X82466800Y-88672400D02*
X82466800Y-91532400D01*
X81966800Y-88162400D02*
X82466800Y-88672400D01*
X80056800Y-88162400D02*
X81966800Y-88162400D01*
X79636800Y-91532400D02*
X79636800Y-88582400D01*
X79636800Y-88582400D02*
X80056800Y-88162400D01*
X72796800Y-85262400D02*
X79196800Y-85262400D01*
X72606800Y-74252400D02*
X79386800Y-74252400D01*
X72306800Y-88672400D02*
X72306800Y-91532400D01*
X71806800Y-88162400D02*
X72306800Y-88672400D01*
X69896800Y-88162400D02*
X71806800Y-88162400D01*
X69476800Y-91532400D02*
X69476800Y-88582400D01*
X69476800Y-88582400D02*
X69896800Y-88162400D01*
X65836800Y-91532400D02*
X86156800Y-91532400D01*
X65836801Y-87302400D02*
X86156799Y-87302400D01*
X65836801Y-85262400D02*
X69036800Y-85262400D01*
X65836800Y-74252400D02*
X69226800Y-74252400D01*
X65836800Y-72882401D02*
X86156800Y-72882401D01*
X65836800Y-72882401D02*
X65836800Y-91532400D01*
%TO.C,J3*%
X41808400Y-72933201D02*
X41808400Y-91583200D01*
X41808400Y-72933201D02*
X62128400Y-72933201D01*
X41808400Y-74303200D02*
X45198400Y-74303200D01*
X41808401Y-85313200D02*
X45008400Y-85313200D01*
X41808401Y-87353200D02*
X62128399Y-87353200D01*
X41808400Y-91583200D02*
X62128400Y-91583200D01*
X45448400Y-88633200D02*
X45868400Y-88213200D01*
X45448400Y-91583200D02*
X45448400Y-88633200D01*
X45868400Y-88213200D02*
X47778400Y-88213200D01*
X47778400Y-88213200D02*
X48278400Y-88723200D01*
X48278400Y-88723200D02*
X48278400Y-91583200D01*
X48578400Y-74303200D02*
X55358400Y-74303200D01*
X48768400Y-85313200D02*
X55168400Y-85313200D01*
X55608400Y-88633200D02*
X56028400Y-88213200D01*
X55608400Y-91583200D02*
X55608400Y-88633200D01*
X56028400Y-88213200D02*
X57938400Y-88213200D01*
X57938400Y-88213200D02*
X58438400Y-88723200D01*
X58438400Y-88723200D02*
X58438400Y-91583200D01*
X58738400Y-74303200D02*
X62128400Y-74303200D01*
X58928400Y-85313200D02*
X62128399Y-85313200D01*
X62128400Y-72933201D02*
X62128400Y-91583200D01*
D13*
X41838400Y-72933201D02*
G75*
G02*
X41778400Y-72933201I-30000J0D01*
G01*
X41778400Y-72933201D02*
G75*
G02*
X41838400Y-72933201I30000J0D01*
G01*
D14*
G36*
X47650400Y-89738200D02*
G01*
X46126400Y-89738200D01*
X46888401Y-88595200D01*
X47650400Y-89738200D01*
G37*
G36*
X57810400Y-89738200D02*
G01*
X56286400Y-89738200D01*
X57048399Y-88595200D01*
X57810400Y-89738200D01*
G37*
G36*
X47015400Y-91135200D02*
G01*
X46761400Y-91135200D01*
X46761400Y-89738200D01*
X47015400Y-89738200D01*
X47015400Y-91135200D01*
G37*
G36*
X57175400Y-91135200D02*
G01*
X56921400Y-91135200D01*
X56921400Y-89738200D01*
X57175400Y-89738200D01*
X57175400Y-91135200D01*
G37*
D12*
%TO.C,J1*%
X86156800Y-33340399D02*
X86156800Y-14690400D01*
X86156800Y-33340399D02*
X65836800Y-33340399D01*
X86156800Y-31970400D02*
X82766800Y-31970400D01*
X86156799Y-20960400D02*
X82956800Y-20960400D01*
X86156799Y-18920400D02*
X65836801Y-18920400D01*
X86156800Y-14690400D02*
X65836800Y-14690400D01*
X82516800Y-17640400D02*
X82096800Y-18060400D01*
X82516800Y-14690400D02*
X82516800Y-17640400D01*
X82096800Y-18060400D02*
X80186800Y-18060400D01*
X80186800Y-18060400D02*
X79686800Y-17550400D01*
X79686800Y-17550400D02*
X79686800Y-14690400D01*
X79386800Y-31970400D02*
X72606800Y-31970400D01*
X79196800Y-20960400D02*
X72796800Y-20960400D01*
X72356800Y-17640400D02*
X71936800Y-18060400D01*
X72356800Y-14690400D02*
X72356800Y-17640400D01*
X71936800Y-18060400D02*
X70026800Y-18060400D01*
X70026800Y-18060400D02*
X69526800Y-17550400D01*
X69526800Y-17550400D02*
X69526800Y-14690400D01*
X69226800Y-31970400D02*
X65836800Y-31970400D01*
X69036800Y-20960400D02*
X65836801Y-20960400D01*
X65836800Y-33340399D02*
X65836800Y-14690400D01*
D13*
X86186800Y-33340399D02*
G75*
G02*
X86126800Y-33340399I-30000J0D01*
G01*
X86126800Y-33340399D02*
G75*
G02*
X86186800Y-33340399I30000J0D01*
G01*
D14*
G36*
X81076799Y-17678400D02*
G01*
X80314800Y-16535400D01*
X81838800Y-16535400D01*
X81076799Y-17678400D01*
G37*
G36*
X70916801Y-17678400D02*
G01*
X70154800Y-16535400D01*
X71678800Y-16535400D01*
X70916801Y-17678400D01*
G37*
G36*
X81203800Y-16535400D02*
G01*
X80949800Y-16535400D01*
X80949800Y-15138400D01*
X81203800Y-15138400D01*
X81203800Y-16535400D01*
G37*
G36*
X71043800Y-16535400D02*
G01*
X70789800Y-16535400D01*
X70789800Y-15138400D01*
X71043800Y-15138400D01*
X71043800Y-16535400D01*
G37*
D11*
%TO.C,D1*%
X58329599Y-41249600D02*
X59239600Y-41249600D01*
X59239600Y-38529600D02*
X59239600Y-43969600D01*
X59239600Y-43969600D02*
X68979600Y-43969600D01*
X60664600Y-38529600D02*
X60664600Y-43969600D01*
X60784600Y-38529600D02*
X60784600Y-43969600D01*
X60904600Y-38529600D02*
X60904600Y-43969600D01*
X68979600Y-38529600D02*
X59239600Y-38529600D01*
X68979600Y-43969600D02*
X68979600Y-38529600D01*
X69889600Y-41249600D02*
X68979600Y-41249600D01*
%TO.C,R2*%
X76606400Y-48591600D02*
X76606400Y-47821600D01*
X75236400Y-47821600D02*
X77976400Y-47821600D01*
X77976400Y-47821600D02*
X77976400Y-41281600D01*
X75236400Y-41281600D02*
X75236400Y-47821600D01*
X77976400Y-41281600D02*
X75236400Y-41281600D01*
X76606400Y-40511600D02*
X76606400Y-41281599D01*
%TO.C,Q1*%
X42964200Y-64421600D02*
X48235200Y-64421600D01*
X42964200Y-64421600D02*
X42964200Y-48281600D01*
X48235200Y-64421600D02*
X48235200Y-48281600D01*
X42964200Y-58155600D02*
X48235200Y-58155600D01*
X42964200Y-54546600D02*
X48235200Y-54546600D01*
X42964200Y-48281600D02*
X48235200Y-48281600D01*
%TD*%
M02*
